<?xml version="1.0" standalone="no"?>
 <!DOCTYPE svg PUBLIC "-//W3C//DTD SVG 1.1//EN" 
 "http://www.w3.org/Graphics/SVG/1.1/DTD/svg11.dtd"> 
<svg xmlns="http://www.w3.org/2000/svg" version="1.1" 
    width="6.85292cm" height="3.57886cm" viewBox="0 0 26980 14090 ">
<title>SVG Picture created as PZCT-02-Burden-brd.svg date 2017/03/31 13:54:06 </title>
  <desc>Picture generated by PCBNEW </desc>
<g style="fill:#000000; fill-opacity:1;stroke:#000000; stroke-opacity:1;
stroke-linecap:round; stroke-linejoin:round; "
 transform="translate(0 0) scale(1 1)">
</g>
<g style="fill:#000000; fill-opacity:0.0; 
stroke:#000000; stroke-width:-0.000393701; stroke-opacity:1; 
stroke-linecap:round; stroke-linejoin:round;">
</g>
<g style="fill:#00FFFF; fill-opacity:0.0; 
stroke:#00FFFF; stroke-width:-0.000393701; stroke-opacity:1; 
stroke-linecap:round; stroke-linejoin:round;">
</g>
<g style="fill:#00FFFF; fill-opacity:0.0; 
stroke:#00FFFF; stroke-width:78.7402; stroke-opacity:1; 
stroke-linecap:round; stroke-linejoin:round;">
<path d="M2872 2040
L2872 2490
" />
<path d="M3117 2265
L2627 2265
" />
<path d="M2473 3052
L2473 2771
L2780 2743
L2749 2771
L2719 2827
L2719 2968
L2749 3024
L2780 3052
L2841 3080
L2994 3080
L3056 3052
L3086 3024
L3117 2968
L3117 2827
L3086 2771
L3056 2743
" />
<path d="M2473 3249
L3117 3446
L2473 3643
" />
<path d="M3548 2349
L3518 2293
L3518 2208
L3548 2124
L3610 2068
L3671 2040
L3794 2012
L3885 2012
L4008 2040
L4069 2068
L4131 2124
L4161 2208
L4161 2265
L4131 2349
L4100 2377
L3885 2377
L3885 2265
" />
<path d="M4161 2630
L3518 2630
L4161 2968
L3518 2968
" />
<path d="M4161 3249
L3518 3249
L3518 3390
L3548 3474
L3610 3530
L3671 3558
L3794 3586
L3885 3586
L4008 3558
L4069 3530
L4131 3474
L4161 3390
L4161 3249
" />
<path d="M5022 2012
L5022 2293
" />
<path d="M5206 1955
L4562 2152
L5206 2349
" />
<path d="M4562 2658
L4562 2715
L4593 2771
L4623 2799
L4685 2827
L4807 2855
L4960 2855
L5083 2827
L5144 2799
L5175 2771
L5206 2715
L5206 2658
L5175 2602
L5144 2574
L5083 2546
L4960 2518
L4807 2518
L4685 2546
L4623 2574
L4593 2602
L4562 2658
" />
<path d="M6066 2012
L6066 2293
" />
<path d="M6250 1955
L5606 2152
L6250 2349
" />
<path d="M6250 2855
L6250 2518
" />
<path d="M6250 2687
L5606 2687
L5698 2630
L5760 2574
L5790 2518
" />
<path d="M7110 2012
L7110 2293
" />
<path d="M7294 1955
L6651 2152
L7294 2349
" />
<path d="M6712 2518
L6681 2546
L6651 2602
L6651 2743
L6681 2799
L6712 2827
L6773 2855
L6834 2855
L6926 2827
L7294 2490
L7294 2855
" />
<path d="M8155 2012
L8155 2293
" />
<path d="M8339 1955
L7695 2152
L8339 2349
" />
<path d="M7695 2490
L7695 2855
L7940 2658
L7940 2743
L7971 2799
L8001 2827
L8063 2855
L8216 2855
L8277 2827
L8308 2799
L8339 2743
L8339 2574
L8308 2518
L8277 2490
" />
</g>
<g style="fill:#00FFFF; fill-opacity:0.0; 
stroke:#00FFFF; stroke-width:157.48; stroke-opacity:1; 
stroke-linecap:round; stroke-linejoin:round;">
<path d="M26147 1535
L26147 747
L25847 747
L25772 785
L25734 822
L25697 897
L25697 1010
L25734 1085
L25772 1122
L25847 1160
L26147 1160
" />
<path d="M25434 747
L24909 747
L25434 1535
L24909 1535
" />
<path d="M24160 1460
L24197 1497
L24309 1535
L24384 1535
L24497 1497
L24572 1422
L24609 1347
L24647 1197
L24647 1085
L24609 935
L24572 860
L24497 785
L24384 747
L24309 747
L24197 785
L24160 822
" />
<path d="M23935 747
L23485 747
" />
<path d="M23710 1535
L23710 747
" />
<path d="M23222 1235
L22622 1235
" />
<path d="M22097 747
L22022 747
L21947 785
L21910 822
L21872 897
L21835 1047
L21835 1235
L21872 1385
L21910 1460
L21947 1497
L22022 1535
L22097 1535
L22172 1497
L22210 1460
L22247 1385
L22285 1235
L22285 1047
L22247 897
L22210 822
L22172 785
L22097 747
" />
<path d="M21535 822
L21497 785
L21422 747
L21235 747
L21160 785
L21122 822
L21085 897
L21085 972
L21122 1085
L21572 1535
L21085 1535
" />
<path d="M19698 1460
L19735 1497
L19848 1535
L19923 1535
L20035 1497
L20110 1422
L20148 1347
L20185 1197
L20185 1085
L20148 935
L20110 860
L20035 785
L19923 747
L19848 747
L19735 785
L19698 822
" />
<path d="M19473 747
L19023 747
" />
<path d="M19248 1535
L19248 747
" />
<path d="M17710 1460
L17748 1497
L17860 1535
L17935 1535
L18048 1497
L18123 1422
L18160 1347
L18198 1197
L18198 1085
L18160 935
L18123 860
L18048 785
L17935 747
L17860 747
L17748 785
L17710 822
" />
<path d="M17260 1535
L17335 1497
L17373 1422
L17373 747
" />
<path d="M16623 1535
L16623 1122
L16660 1047
L16735 1010
L16885 1010
L16960 1047
" />
<path d="M16623 1497
L16698 1535
L16885 1535
L16960 1497
L16998 1422
L16998 1347
L16960 1272
L16885 1235
L16698 1235
L16623 1197
" />
<path d="M16248 1535
L16248 1010
" />
<path d="M16248 1085
L16211 1047
L16136 1010
L16023 1010
L15948 1047
L15911 1122
L15911 1535
" />
<path d="M15911 1122
L15873 1047
L15798 1010
L15686 1010
L15611 1047
L15573 1122
L15573 1535
" />
<path d="M15198 1010
L15198 1797
" />
<path d="M15198 1047
L15123 1010
L14973 1010
L14898 1047
L14861 1085
L14823 1160
L14823 1385
L14861 1460
L14898 1497
L14973 1535
L15123 1535
L15198 1497
" />
<path d="M25884 2461
L25772 2498
L25734 2536
L25697 2611
L25697 2723
L25734 2798
L25772 2836
L25847 2873
L26147 2873
L26147 2086
L25884 2086
L25809 2124
L25772 2161
L25734 2236
L25734 2311
L25772 2386
L25809 2423
L25884 2461
L26147 2461
" />
<path d="M25022 2348
L25022 2873
" />
<path d="M25359 2348
L25359 2761
L25322 2836
L25247 2873
L25134 2873
L25059 2836
L25022 2798
" />
<path d="M24647 2873
L24647 2348
" />
<path d="M24647 2498
L24609 2423
L24572 2386
L24497 2348
L24422 2348
" />
<path d="M23822 2873
L23822 2086
" />
<path d="M23822 2836
L23897 2873
L24047 2873
L24122 2836
L24160 2798
L24197 2723
L24197 2498
L24160 2423
L24122 2386
L24047 2348
L23897 2348
L23822 2386
" />
<path d="M23147 2836
L23222 2873
L23372 2873
L23447 2836
L23485 2761
L23485 2461
L23447 2386
L23372 2348
L23222 2348
L23147 2386
L23110 2461
L23110 2536
L23485 2611
" />
<path d="M22772 2348
L22772 2873
" />
<path d="M22772 2423
L22735 2386
L22660 2348
L22547 2348
L22472 2386
L22435 2461
L22435 2873
" />
<path d="M20822 2873
L20860 2873
L20935 2836
L21047 2723
L21235 2498
L21310 2386
L21347 2273
L21347 2199
L21310 2124
L21235 2086
L21197 2086
L21122 2124
L21085 2199
L21085 2236
L21122 2311
L21160 2348
L21385 2498
L21422 2536
L21460 2611
L21460 2723
L21422 2798
L21385 2836
L21310 2873
L21197 2873
L21122 2836
L21085 2798
L20972 2648
L20935 2536
L20935 2461
" />
<path d="M19510 2873
L19885 2873
L19885 2086
" />
<path d="M18948 2836
L19023 2873
L19173 2873
L19248 2836
L19285 2761
L19285 2461
L19248 2386
L19173 2348
L19023 2348
L18948 2386
L18910 2461
L18910 2536
L19285 2611
" />
<path d="M18648 2348
L18460 2873
L18273 2348
" />
<path d="M17673 2836
L17748 2873
L17898 2873
L17973 2836
L18010 2761
L18010 2461
L17973 2386
L17898 2348
L17748 2348
L17673 2386
L17635 2461
L17635 2536
L18010 2611
" />
<path d="M17185 2873
L17260 2836
L17298 2761
L17298 2086
" />
<path d="M16323 2836
L16211 2873
L16023 2873
L15948 2836
L15911 2798
L15873 2723
L15873 2648
L15911 2573
L15948 2536
L16023 2498
L16173 2461
L16248 2423
L16285 2386
L16323 2311
L16323 2236
L16285 2161
L16248 2124
L16173 2086
L15986 2086
L15873 2124
" />
<path d="M15536 2873
L15536 2086
" />
<path d="M15198 2873
L15198 2461
L15236 2386
L15311 2348
L15423 2348
L15498 2386
L15536 2423
" />
<path d="M14823 2873
L14823 2348
" />
<path d="M14823 2086
L14861 2124
L14823 2161
L14786 2124
L14823 2086
L14823 2161
" />
<path d="M14561 2348
L14261 2348
" />
<path d="M14448 2873
L14448 2199
L14411 2124
L14336 2086
L14261 2086
" />
<path d="M14111 2348
L13811 2348
" />
<path d="M13998 2086
L13998 2761
L13961 2836
L13886 2873
L13811 2873
" />
</g>
<g style="fill:#00FFFF; fill-opacity:0.0; 
stroke:#00FFFF; stroke-width:59.0551; stroke-opacity:1; 
stroke-linecap:round; stroke-linejoin:round;">
<path d="M3551 7879
L3551 9846
" />
<path d="M3496 7882
L3496 8802
" />
<path d="M3496 8923
L3496 9843
" />
<path d="M3441 7888
L3441 8676
" />
<path d="M3441 9049
L3441 9837
" />
<path d="M3385 7897
L3385 8618
" />
<path d="M3385 9107
L3385 9827
" />
<path d="M3330 7910
L3330 8582
" />
<path d="M3330 9143
L3330 9814
" />
<path d="M3275 7927
L3275 8560
" />
<path d="M3275 9165
L3275 9798
" />
<path d="M3220 7946
L3220 8549
" />
<path d="M3220 9175
L3220 9779
" />
<path d="M3165 7970
L3165 8548
" />
<path d="M3165 9177
L3165 9755
" />
<path d="M3110 7998
L3110 8557
" />
<path d="M3110 9168
L3110 9727
" />
<path d="M3055 8030
L3055 8577
" />
<path d="M3055 9148
L3055 9695
" />
<path d="M3000 8068
L3000 8609
" />
<path d="M3000 9116
L3000 9657
" />
<path d="M2944 8111
L2944 8661
" />
<path d="M2944 9064
L2944 9614
" />
<path d="M2889 8162
L2889 8758
" />
<path d="M2889 8967
L2889 9563
" />
<path d="M2834 8220
L2834 9505
" />
<path d="M2779 8291
L2779 9434
" />
<path d="M2724 8377
L2724 9348
" />
<path d="M2669 8491
L2669 9234
" />
<path d="M2614 8677
L2614 9048
" />
<circle cx="3187.1" cy="8862.91" r="314.961" /> 
<circle cx="3580.8" cy="8862.91" r="999.016" /> 
<path d="M16801 7879
L16801 9846
" />
<path d="M16746 7882
L16746 8802
" />
<path d="M16746 8923
L16746 9843
" />
<path d="M16691 7888
L16691 8676
" />
<path d="M16691 9049
L16691 9837
" />
<path d="M16635 7897
L16635 8618
" />
<path d="M16635 9107
L16635 9827
" />
<path d="M16580 7910
L16580 8582
" />
<path d="M16580 9143
L16580 9814
" />
<path d="M16525 7927
L16525 8560
" />
<path d="M16525 9165
L16525 9798
" />
<path d="M16470 7946
L16470 8549
" />
<path d="M16470 9175
L16470 9779
" />
<path d="M16415 7970
L16415 8548
" />
<path d="M16415 9177
L16415 9755
" />
<path d="M16360 7998
L16360 8557
" />
<path d="M16360 9168
L16360 9727
" />
<path d="M16305 8030
L16305 8577
" />
<path d="M16305 9148
L16305 9695
" />
<path d="M16250 8068
L16250 8609
" />
<path d="M16250 9116
L16250 9657
" />
<path d="M16194 8111
L16194 8661
" />
<path d="M16194 9064
L16194 9614
" />
<path d="M16139 8162
L16139 8758
" />
<path d="M16139 8967
L16139 9563
" />
<path d="M16084 8220
L16084 9505
" />
<path d="M16029 8291
L16029 9434
" />
<path d="M15974 8377
L15974 9348
" />
<path d="M15919 8491
L15919 9234
" />
<path d="M15864 8677
L15864 9048
" />
<circle cx="16437.1" cy="8862.91" r="314.961" /> 
<circle cx="16830.8" cy="8862.91" r="999.016" /> 
<path d="M5184 12362
L6184 12362
" />
<path d="M4074 12473
L4684 12473
" />
<path d="M5184 12362
L5184 11362
" />
<path d="M4684 11252
L4074 11252
" />
<path d="M4074 11252
L4074 12473
" />
<path d="M5184 11362
L6184 11362
" />
<path d="M6184 11362
L6184 12362
" />
<path d="M3934 5112
L3934 4112
" />
<path d="M1934 5112
L3934 5112
" />
<path d="M1934 4112
L1934 5112
" />
<path d="M3934 4112
L1934 4112
" />
<circle cx="23330.8" cy="8862.91" r="999.016" /> 
<circle cx="22937.1" cy="8862.91" r="314.961" /> 
<path d="M22364 8677
L22364 9048
" />
<path d="M22419 8491
L22419 9234
" />
<path d="M22474 8377
L22474 9348
" />
<path d="M22529 8291
L22529 9434
" />
<path d="M22584 8220
L22584 9505
" />
<path d="M22639 8967
L22639 9563
" />
<path d="M22639 8162
L22639 8758
" />
<path d="M22694 9064
L22694 9614
" />
<path d="M22694 8111
L22694 8661
" />
<path d="M22750 9116
L22750 9657
" />
<path d="M22750 8068
L22750 8609
" />
<path d="M22805 9148
L22805 9695
" />
<path d="M22805 8030
L22805 8577
" />
<path d="M22860 9168
L22860 9727
" />
<path d="M22860 7998
L22860 8557
" />
<path d="M22915 9177
L22915 9755
" />
<path d="M22915 7970
L22915 8548
" />
<path d="M22970 9175
L22970 9779
" />
<path d="M22970 7946
L22970 8549
" />
<path d="M23025 9165
L23025 9798
" />
<path d="M23025 7927
L23025 8560
" />
<path d="M23080 9143
L23080 9814
" />
<path d="M23080 7910
L23080 8582
" />
<path d="M23135 9107
L23135 9827
" />
<path d="M23135 7897
L23135 8618
" />
<path d="M23191 9049
L23191 9837
" />
<path d="M23191 7888
L23191 8676
" />
<path d="M23246 8923
L23246 9843
" />
<path d="M23246 7882
L23246 8802
" />
<path d="M23301 7879
L23301 9846
" />
<path d="M10051 7879
L10051 9846
" />
<path d="M9996 7882
L9996 8802
" />
<path d="M9996 8923
L9996 9843
" />
<path d="M9941 7888
L9941 8676
" />
<path d="M9941 9049
L9941 9837
" />
<path d="M9885 7897
L9885 8618
" />
<path d="M9885 9107
L9885 9827
" />
<path d="M9830 7910
L9830 8582
" />
<path d="M9830 9143
L9830 9814
" />
<path d="M9775 7927
L9775 8560
" />
<path d="M9775 9165
L9775 9798
" />
<path d="M9720 7946
L9720 8549
" />
<path d="M9720 9175
L9720 9779
" />
<path d="M9665 7970
L9665 8548
" />
<path d="M9665 9177
L9665 9755
" />
<path d="M9610 7998
L9610 8557
" />
<path d="M9610 9168
L9610 9727
" />
<path d="M9555 8030
L9555 8577
" />
<path d="M9555 9148
L9555 9695
" />
<path d="M9500 8068
L9500 8609
" />
<path d="M9500 9116
L9500 9657
" />
<path d="M9444 8111
L9444 8661
" />
<path d="M9444 9064
L9444 9614
" />
<path d="M9389 8162
L9389 8758
" />
<path d="M9389 8967
L9389 9563
" />
<path d="M9334 8220
L9334 9505
" />
<path d="M9279 8291
L9279 9434
" />
<path d="M9224 8377
L9224 9348
" />
<path d="M9169 8491
L9169 9234
" />
<path d="M9114 8677
L9114 9048
" />
<circle cx="9687.1" cy="8862.91" r="314.961" /> 
<circle cx="10080.8" cy="8862.91" r="999.016" /> 
<path d="M25934 11362
L25934 12362
" />
<path d="M24934 11362
L25934 11362
" />
<path d="M23824 11252
L23824 12473
" />
<path d="M24434 11252
L23824 11252
" />
<path d="M24934 12362
L24934 11362
" />
<path d="M23824 12473
L24434 12473
" />
<path d="M24934 12362
L25934 12362
" />
<path d="M18434 12362
L19434 12362
" />
<path d="M17324 12473
L17934 12473
" />
<path d="M18434 12362
L18434 11362
" />
<path d="M17934 11252
L17324 11252
" />
<path d="M17324 11252
L17324 12473
" />
<path d="M18434 11362
L19434 11362
" />
<path d="M19434 11362
L19434 12362
" />
<path d="M12684 11362
L12684 12362
" />
<path d="M11684 11362
L12684 11362
" />
<path d="M10574 11252
L10574 12473
" />
<path d="M11184 11252
L10574 11252
" />
<path d="M11684 12362
L11684 11362
" />
<path d="M10574 12473
L11184 12473
" />
<path d="M11684 12362
L12684 12362
" />
<path d="M3437 1598
L8437 1598
" />
<path d="M8437 1598
L8437 598
" />
<path d="M8437 598
L3437 598
" />
<path d="M2326 1708
L2937 1708
" />
<path d="M3437 1598
L3437 598
" />
<path d="M2937 488
L2326 488
" />
<path d="M2326 488
L2326 1708
" />
<path d="M25434 5112
L25434 5565
" />
<path d="M25434 10018
L25434 9565
" />
<path d="M24934 9565
L24934 5565
" />
<path d="M25934 9565
L24934 9565
" />
<path d="M25934 5565
L25934 9565
" />
<path d="M24934 5565
L25934 5565
" />
<path d="M18434 5565
L19434 5565
" />
<path d="M19434 5565
L19434 9565
" />
<path d="M19434 9565
L18434 9565
" />
<path d="M18434 9565
L18434 5565
" />
<path d="M18934 10018
L18934 9565
" />
<path d="M18934 5112
L18934 5565
" />
<path d="M12184 5112
L12184 5565
" />
<path d="M12184 10018
L12184 9565
" />
<path d="M11684 9565
L11684 5565
" />
<path d="M12684 9565
L11684 9565
" />
<path d="M12684 5565
L12684 9565
" />
<path d="M11684 5565
L12684 5565
" />
<path d="M5184 5565
L6184 5565
" />
<path d="M6184 5565
L6184 9565
" />
<path d="M6184 9565
L5184 9565
" />
<path d="M5184 9565
L5184 5565
" />
<path d="M5684 10018
L5684 9565
" />
<path d="M5684 5112
L5684 5565
" />
<path d="M23684 4112
L21684 4112
" />
<path d="M21684 4112
L21684 5112
" />
<path d="M21684 5112
L23684 5112
" />
<path d="M23684 5112
L23684 4112
" />
<path d="M21684 7112
L23684 7112
" />
<path d="M23684 7112
L23684 6112
" />
<path d="M23684 6112
L21684 6112
" />
<path d="M21684 6112
L21684 7112
" />
<path d="M17184 5112
L17184 4112
" />
<path d="M15184 5112
L17184 5112
" />
<path d="M15184 4112
L15184 5112
" />
<path d="M17184 4112
L15184 4112
" />
<path d="M15184 7112
L17184 7112
" />
<path d="M17184 7112
L17184 6112
" />
<path d="M17184 6112
L15184 6112
" />
<path d="M15184 6112
L15184 7112
" />
<path d="M10434 4112
L8434 4112
" />
<path d="M8434 4112
L8434 5112
" />
<path d="M8434 5112
L10434 5112
" />
<path d="M10434 5112
L10434 4112
" />
<path d="M8434 7112
L10434 7112
" />
<path d="M10434 7112
L10434 6112
" />
<path d="M10434 6112
L8434 6112
" />
<path d="M8434 6112
L8434 7112
" />
<path d="M1934 7112
L3934 7112
" />
<path d="M3934 7112
L3934 6112
" />
<path d="M3934 6112
L1934 6112
" />
<path d="M1934 6112
L1934 7112
" />
</g>
<g style="fill:#FF00FF; fill-opacity:0.0; 
stroke:#FF00FF; stroke-width:59.0551; stroke-opacity:1; 
stroke-linecap:round; stroke-linejoin:round;">
<path d="M2046 8928
L2027 8947
L2008 9003
L2008 9041
L2027 9097
L2065 9134
L2102 9153
L2177 9172
L2233 9172
L2308 9153
L2346 9134
L2383 9097
L2402 9041
L2402 9003
L2383 8947
L2365 8928
" />
<path d="M2008 8553
L2008 8778
" />
<path d="M2008 8666
L2402 8666
L2346 8703
L2308 8741
L2290 8778
" />
<path d="M15296 8928
L15277 8947
L15258 9003
L15258 9041
L15277 9097
L15315 9134
L15352 9153
L15427 9172
L15483 9172
L15558 9153
L15596 9134
L15633 9097
L15652 9041
L15652 9003
L15633 8947
L15615 8928
" />
<path d="M15652 8797
L15652 8553
L15502 8684
L15502 8628
L15483 8591
L15465 8572
L15427 8553
L15333 8553
L15296 8572
L15277 8591
L15258 8628
L15258 8741
L15277 8778
L15296 8797
" />
<path d="M4975 13041
L4975 12647
L4825 12647
L4787 12666
L4769 12684
L4750 12722
L4750 12778
L4769 12816
L4787 12834
L4825 12853
L4975 12853
" />
<path d="M4600 12684
L4581 12666
L4544 12647
L4450 12647
L4412 12666
L4394 12684
L4375 12722
L4375 12759
L4394 12816
L4619 13041
L4375 13041
" />
<path d="M3502 4026
L3633 3839
" />
<path d="M3727 4026
L3727 3632
L3577 3632
L3540 3651
L3521 3670
L3502 3707
L3502 3764
L3521 3801
L3540 3820
L3577 3839
L3727 3839
" />
<path d="M3352 3670
L3333 3651
L3296 3632
L3202 3632
L3165 3651
L3146 3670
L3127 3707
L3127 3745
L3146 3801
L3371 4026
L3127 4026
" />
<path d="M21796 8928
L21777 8947
L21758 9003
L21758 9041
L21777 9097
L21815 9134
L21852 9153
L21927 9172
L21983 9172
L22058 9153
L22096 9134
L22133 9097
L22152 9041
L22152 9003
L22133 8947
L22115 8928
" />
<path d="M22021 8591
L21758 8591
" />
<path d="M22171 8684
L21890 8778
L21890 8534
" />
<path d="M8583 8928
L8565 8947
L8546 9003
L8546 9041
L8565 9097
L8602 9134
L8640 9153
L8715 9172
L8771 9172
L8846 9153
L8883 9134
L8921 9097
L8940 9041
L8940 9003
L8921 8947
L8902 8928
" />
<path d="M8902 8778
L8921 8759
L8940 8722
L8940 8628
L8921 8591
L8902 8572
L8865 8553
L8827 8553
L8771 8572
L8546 8797
L8546 8553
" />
<path d="M24475 13041
L24475 12647
L24325 12647
L24287 12666
L24269 12684
L24250 12722
L24250 12778
L24269 12816
L24287 12834
L24325 12853
L24475 12853
" />
<path d="M23894 12647
L24081 12647
L24100 12834
L24081 12816
L24044 12797
L23950 12797
L23912 12816
L23894 12834
L23875 12872
L23875 12966
L23894 13003
L23912 13022
L23950 13041
L24044 13041
L24081 13022
L24100 13003
" />
<path d="M17975 13041
L17975 12647
L17825 12647
L17787 12666
L17769 12684
L17750 12722
L17750 12778
L17769 12816
L17787 12834
L17825 12853
L17975 12853
" />
<path d="M17412 12778
L17412 13041
" />
<path d="M17506 12628
L17600 12909
L17356 12909
" />
<path d="M11475 13041
L11475 12647
L11325 12647
L11287 12666
L11269 12684
L11250 12722
L11250 12778
L11269 12816
L11287 12834
L11325 12853
L11475 12853
" />
<path d="M11119 12647
L10875 12647
L11006 12797
L10950 12797
L10912 12816
L10894 12834
L10875 12872
L10875 12966
L10894 13003
L10912 13022
L10950 13041
L11062 13041
L11100 13022
L11119 13003
" />
<path d="M1761 1374
L2155 1374
L2155 1224
L2136 1187
L2117 1168
L2080 1149
L2023 1149
L1986 1168
L1967 1187
L1948 1224
L1948 1374
" />
<path d="M1761 774
L1761 999
" />
<path d="M1761 887
L2155 887
L2098 924
L2061 962
L2042 999
" />
<path d="M24506 7866
L24694 7997
" />
<path d="M24506 8090
L24900 8090
L24900 7940
L24881 7903
L24862 7884
L24825 7866
L24769 7866
L24731 7884
L24712 7903
L24694 7940
L24694 8090
" />
<path d="M24506 7491
L24506 7716
" />
<path d="M24506 7603
L24900 7603
L24844 7641
L24806 7678
L24787 7716
" />
<path d="M24862 7341
L24881 7322
L24900 7284
L24900 7191
L24881 7153
L24862 7134
L24825 7116
L24787 7116
L24731 7134
L24506 7359
L24506 7116
" />
<path d="M18006 7866
L18194 7997
" />
<path d="M18006 8090
L18400 8090
L18400 7940
L18381 7903
L18362 7884
L18325 7866
L18269 7866
L18231 7884
L18212 7903
L18194 7940
L18194 8090
" />
<path d="M18006 7491
L18006 7716
" />
<path d="M18006 7603
L18400 7603
L18344 7641
L18306 7678
L18287 7716
" />
<path d="M18006 7116
L18006 7341
" />
<path d="M18006 7228
L18400 7228
L18344 7266
L18306 7303
L18287 7341
" />
<path d="M11256 7818
L11444 7949
" />
<path d="M11256 8043
L11650 8043
L11650 7893
L11631 7856
L11612 7837
L11575 7818
L11519 7818
L11481 7837
L11462 7856
L11444 7893
L11444 8043
" />
<path d="M11256 7443
L11256 7668
" />
<path d="M11256 7556
L11650 7556
L11594 7593
L11556 7631
L11537 7668
" />
<path d="M11650 7200
L11650 7162
L11631 7125
L11612 7106
L11575 7087
L11500 7068
L11406 7068
L11331 7087
L11294 7106
L11275 7125
L11256 7162
L11256 7200
L11275 7237
L11294 7256
L11331 7275
L11406 7293
L11500 7293
L11575 7275
L11612 7256
L11631 7237
L11650 7200
" />
<path d="M4756 7631
L4944 7762
" />
<path d="M4756 7856
L5150 7856
L5150 7706
L5131 7668
L5112 7650
L5075 7631
L5019 7631
L4981 7650
L4962 7668
L4944 7706
L4944 7856
" />
<path d="M4756 7443
L4756 7368
L4775 7331
L4794 7312
L4850 7275
L4925 7256
L5075 7256
L5112 7275
L5131 7293
L5150 7331
L5150 7406
L5131 7443
L5112 7462
L5075 7481
L4981 7481
L4944 7462
L4925 7443
L4906 7406
L4906 7331
L4925 7293
L4944 7275
L4981 7256
" />
<path d="M23252 4026
L23383 3839
" />
<path d="M23477 4026
L23477 3632
L23327 3632
L23290 3651
L23271 3670
L23252 3707
L23252 3764
L23271 3801
L23290 3820
L23327 3839
L23477 3839
" />
<path d="M23027 3801
L23065 3782
L23083 3764
L23102 3726
L23102 3707
L23083 3670
L23065 3651
L23027 3632
L22952 3632
L22915 3651
L22896 3670
L22877 3707
L22877 3726
L22896 3764
L22915 3782
L22952 3801
L23027 3801
L23065 3820
L23083 3839
L23102 3876
L23102 3951
L23083 3989
L23065 4007
L23027 4026
L22952 4026
L22915 4007
L22896 3989
L22877 3951
L22877 3876
L22896 3839
L22915 3820
L22952 3801
" />
<path d="M23252 6026
L23383 5839
" />
<path d="M23477 6026
L23477 5632
L23327 5632
L23290 5651
L23271 5670
L23252 5707
L23252 5764
L23271 5801
L23290 5820
L23327 5839
L23477 5839
" />
<path d="M23121 5632
L22859 5632
L23027 6026
" />
<path d="M16752 4026
L16883 3839
" />
<path d="M16977 4026
L16977 3632
L16827 3632
L16790 3651
L16771 3670
L16752 3707
L16752 3764
L16771 3801
L16790 3820
L16827 3839
L16977 3839
" />
<path d="M16415 3632
L16490 3632
L16527 3651
L16546 3670
L16583 3726
L16602 3801
L16602 3951
L16583 3989
L16565 4007
L16527 4026
L16452 4026
L16415 4007
L16396 3989
L16377 3951
L16377 3857
L16396 3820
L16415 3801
L16452 3782
L16527 3782
L16565 3801
L16583 3820
L16602 3857
" />
<path d="M16752 6026
L16883 5839
" />
<path d="M16977 6026
L16977 5632
L16827 5632
L16790 5651
L16771 5670
L16752 5707
L16752 5764
L16771 5801
L16790 5820
L16827 5839
L16977 5839
" />
<path d="M16396 5632
L16583 5632
L16602 5820
L16583 5801
L16546 5782
L16452 5782
L16415 5801
L16396 5820
L16377 5857
L16377 5951
L16396 5989
L16415 6007
L16452 6026
L16546 6026
L16583 6007
L16602 5989
" />
<path d="M10002 4026
L10133 3839
" />
<path d="M10227 4026
L10227 3632
L10077 3632
L10040 3651
L10021 3670
L10002 3707
L10002 3764
L10021 3801
L10040 3820
L10077 3839
L10227 3839
" />
<path d="M9665 3764
L9665 4026
" />
<path d="M9758 3614
L9852 3895
L9609 3895
" />
<path d="M10002 6026
L10133 5839
" />
<path d="M10227 6026
L10227 5632
L10077 5632
L10040 5651
L10021 5670
L10002 5707
L10002 5764
L10021 5801
L10040 5820
L10077 5839
L10227 5839
" />
<path d="M9871 5632
L9627 5632
L9758 5782
L9702 5782
L9665 5801
L9646 5820
L9627 5857
L9627 5951
L9646 5989
L9665 6007
L9702 6026
L9815 6026
L9852 6007
L9871 5989
" />
<path d="M3502 6026
L3633 5839
" />
<path d="M3727 6026
L3727 5632
L3577 5632
L3540 5651
L3521 5670
L3502 5707
L3502 5764
L3521 5801
L3540 5820
L3577 5839
L3727 5839
" />
<path d="M3127 6026
L3352 6026
" />
<path d="M3240 6026
L3240 5632
L3277 5689
L3315 5726
L3352 5745
" />
</g>
<g style="fill:#000000; fill-opacity:0.0; 
stroke:#000000; stroke-width:59.0551; stroke-opacity:1; 
stroke-linecap:round; stroke-linejoin:round;">
</g>
<g style="fill:#848484; fill-opacity:0.0; 
stroke:#848484; stroke-width:59.0551; stroke-opacity:1; 
stroke-linecap:round; stroke-linejoin:round;">
</g>
<g style="fill:#848484; fill-opacity:0.0; 
stroke:#848484; stroke-width:19.685; stroke-opacity:1; 
stroke-linecap:round; stroke-linejoin:round;">
<circle cx="3580.8" cy="8862.91" r="1102.36" /> 
<circle cx="16830.8" cy="8862.91" r="1102.36" /> 
<path d="M3995 11173
L6377 11173
" />
<path d="M3995 12551
L6377 12551
" />
<path d="M3995 11173
L3995 12551
" />
<path d="M6377 11173
L6377 12551
" />
<path d="M4926 5203
L950 5203
" />
<path d="M950 4022
L950 5203
" />
<path d="M4926 5203
L4926 4022
" />
<path d="M4926 4022
L950 4022
" />
<circle cx="23330.8" cy="8862.91" r="1102.36" /> 
<circle cx="10080.8" cy="8862.91" r="1102.36" /> 
<path d="M26127 11173
L26127 12551
" />
<path d="M23745 11173
L23745 12551
" />
<path d="M23745 12551
L26127 12551
" />
<path d="M23745 11173
L26127 11173
" />
<path d="M17245 11173
L19627 11173
" />
<path d="M17245 12551
L19627 12551
" />
<path d="M17245 11173
L17245 12551
" />
<path d="M19627 11173
L19627 12551
" />
<path d="M12877 11173
L12877 12551
" />
<path d="M10495 11173
L10495 12551
" />
<path d="M10495 12551
L12877 12551
" />
<path d="M10495 11173
L12877 11173
" />
<path d="M2248 409
L8626 409
" />
<path d="M2248 1787
L8626 1787
" />
<path d="M2248 409
L2248 1787
" />
<path d="M8626 409
L8626 1787
" />
<path d="M26025 11010
L26025 4120
" />
<path d="M24844 11010
L26025 11010
" />
<path d="M24844 4120
L24844 11010
" />
<path d="M26025 4120
L24844 4120
" />
<path d="M19525 4120
L18344 4120
" />
<path d="M18344 4120
L18344 11010
" />
<path d="M18344 11010
L19525 11010
" />
<path d="M19525 11010
L19525 4120
" />
<path d="M12775 11010
L12775 4120
" />
<path d="M11594 11010
L12775 11010
" />
<path d="M11594 4120
L11594 11010
" />
<path d="M12775 4120
L11594 4120
" />
<path d="M6275 4120
L5094 4120
" />
<path d="M5094 4120
L5094 11010
" />
<path d="M5094 11010
L6275 11010
" />
<path d="M6275 11010
L6275 4120
" />
<path d="M24676 4022
L20700 4022
" />
<path d="M24676 5203
L24676 4022
" />
<path d="M20700 4022
L20700 5203
" />
<path d="M24676 5203
L20700 5203
" />
<path d="M20692 7203
L24668 7203
" />
<path d="M20692 6022
L20692 7203
" />
<path d="M24668 7203
L24668 6022
" />
<path d="M20692 6022
L24668 6022
" />
<path d="M18176 5203
L14200 5203
" />
<path d="M14200 4022
L14200 5203
" />
<path d="M18176 5203
L18176 4022
" />
<path d="M18176 4022
L14200 4022
" />
<path d="M14192 7203
L18168 7203
" />
<path d="M14192 6022
L14192 7203
" />
<path d="M18168 7203
L18168 6022
" />
<path d="M14192 6022
L18168 6022
" />
<path d="M11426 4022
L7450 4022
" />
<path d="M11426 5203
L11426 4022
" />
<path d="M7450 4022
L7450 5203
" />
<path d="M11426 5203
L7450 5203
" />
<path d="M7442 7203
L11418 7203
" />
<path d="M7442 6022
L7442 7203
" />
<path d="M11418 7203
L11418 6022
" />
<path d="M7442 6022
L11418 6022
" />
<path d="M942 7203
L4918 7203
" />
<path d="M942 6022
L942 7203
" />
<path d="M4918 7203
L4918 6022
" />
<path d="M942 6022
L4918 6022
" />
</g>
<g style="fill:#000000; fill-opacity:0.0; 
stroke:#000000; stroke-width:19.685; stroke-opacity:1; 
stroke-linecap:round; stroke-linejoin:round;">
</g>
<g style="fill:#FF00FF; fill-opacity:0.0; 
stroke:#FF00FF; stroke-width:19.685; stroke-opacity:1; 
stroke-linecap:round; stroke-linejoin:round;">
</g>
<g style="fill:#FF00FF; fill-opacity:0.0; 
stroke:#FF00FF; stroke-width:59.0551; stroke-opacity:1; 
stroke-linecap:round; stroke-linejoin:round;">
<path d="M3858 10541
L4083 10541
" />
<path d="M3971 10541
L3971 10147
L4008 10203
L4046 10241
L4083 10259
" />
<path d="M3615 10147
L3577 10147
L3540 10166
L3521 10184
L3502 10222
L3483 10297
L3483 10391
L3502 10466
L3521 10503
L3540 10522
L3577 10541
L3615 10541
L3652 10522
L3671 10503
L3690 10466
L3708 10391
L3708 10297
L3690 10222
L3671 10184
L3652 10166
L3615 10147
" />
<path d="M3146 10278
L3146 10541
" />
<path d="M3315 10278
L3315 10484
L3296 10522
L3258 10541
L3202 10541
L3165 10522
L3146 10503
" />
<path d="M2827 10334
L2959 10334
" />
<path d="M2959 10541
L2959 10147
L2771 10147
" />
<path d="M17108 10537
L17333 10537
" />
<path d="M17221 10537
L17221 10143
L17258 10199
L17296 10237
L17333 10255
" />
<path d="M16865 10143
L16827 10143
L16790 10162
L16771 10180
L16752 10218
L16733 10293
L16733 10387
L16752 10462
L16771 10499
L16790 10518
L16827 10537
L16865 10537
L16902 10518
L16921 10499
L16940 10462
L16958 10387
L16958 10293
L16940 10218
L16921 10180
L16902 10162
L16865 10143
" />
<path d="M16396 10274
L16396 10537
" />
<path d="M16565 10274
L16565 10480
L16546 10518
L16508 10537
L16452 10537
L16415 10518
L16396 10499
" />
<path d="M16077 10330
L16209 10330
" />
<path d="M16209 10537
L16209 10143
L16021 10143
" />
<path d="M3206 4791
L3431 4791
" />
<path d="M3319 4791
L3319 4397
L3356 4453
L3394 4491
L3431 4509
" />
<path d="M2962 4397
L2925 4397
L2887 4416
L2869 4434
L2850 4472
L2831 4547
L2831 4641
L2850 4716
L2869 4753
L2887 4772
L2925 4791
L2962 4791
L3000 4772
L3019 4753
L3037 4716
L3056 4641
L3056 4547
L3037 4472
L3019 4434
L3000 4416
L2962 4397
" />
<path d="M2662 4791
L2662 4397
" />
<path d="M2437 4791
L2606 4566
" />
<path d="M2437 4397
L2662 4622
" />
<path d="M23752 10537
L23977 10537
" />
<path d="M23865 10537
L23865 10143
L23902 10199
L23940 10237
L23977 10255
" />
<path d="M23508 10143
L23471 10143
L23433 10162
L23415 10180
L23396 10218
L23377 10293
L23377 10387
L23396 10462
L23415 10499
L23433 10518
L23471 10537
L23508 10537
L23546 10518
L23565 10499
L23583 10462
L23602 10387
L23602 10293
L23583 10218
L23565 10180
L23546 10162
L23508 10143
" />
<path d="M23040 10274
L23040 10537
" />
<path d="M23208 10274
L23208 10480
L23190 10518
L23152 10537
L23096 10537
L23058 10518
L23040 10499
" />
<path d="M22721 10330
L22852 10330
" />
<path d="M22852 10537
L22852 10143
L22665 10143
" />
<path d="M10396 10541
L10621 10541
" />
<path d="M10508 10541
L10508 10147
L10546 10203
L10583 10241
L10621 10259
" />
<path d="M10152 10147
L10115 10147
L10077 10166
L10058 10184
L10040 10222
L10021 10297
L10021 10391
L10040 10466
L10058 10503
L10077 10522
L10115 10541
L10152 10541
L10190 10522
L10208 10503
L10227 10466
L10246 10391
L10246 10297
L10227 10222
L10208 10184
L10190 10166
L10152 10147
" />
<path d="M9683 10278
L9683 10541
" />
<path d="M9852 10278
L9852 10484
L9833 10522
L9796 10541
L9740 10541
L9702 10522
L9683 10503
" />
<path d="M9365 10334
L9496 10334
" />
<path d="M9496 10541
L9496 10147
L9308 10147
" />
<path d="M25256 7687
L25256 7912
" />
<path d="M25256 7800
L25650 7800
L25594 7837
L25556 7875
L25537 7912
" />
<path d="M25481 7462
L25500 7500
L25519 7519
L25556 7537
L25575 7537
L25612 7519
L25631 7500
L25650 7462
L25650 7387
L25631 7350
L25612 7331
L25575 7312
L25556 7312
L25519 7331
L25500 7350
L25481 7387
L25481 7462
L25462 7500
L25444 7519
L25406 7537
L25331 7537
L25294 7519
L25275 7500
L25256 7462
L25256 7387
L25275 7350
L25294 7331
L25331 7312
L25406 7312
L25444 7331
L25462 7350
L25481 7387
" />
<path d="M18756 7687
L18756 7912
" />
<path d="M18756 7800
L19150 7800
L19094 7837
L19056 7875
L19037 7912
" />
<path d="M18981 7462
L19000 7500
L19019 7519
L19056 7537
L19075 7537
L19112 7519
L19131 7500
L19150 7462
L19150 7387
L19131 7350
L19112 7331
L19075 7312
L19056 7312
L19019 7331
L19000 7350
L18981 7387
L18981 7462
L18962 7500
L18944 7519
L18906 7537
L18831 7537
L18794 7519
L18775 7500
L18756 7462
L18756 7387
L18775 7350
L18794 7331
L18831 7312
L18906 7312
L18944 7331
L18962 7350
L18981 7387
" />
<path d="M12006 7640
L12006 7865
" />
<path d="M12006 7753
L12400 7753
L12344 7790
L12306 7828
L12287 7865
" />
<path d="M12231 7415
L12250 7453
L12269 7471
L12306 7490
L12325 7490
L12362 7471
L12381 7453
L12400 7415
L12400 7340
L12381 7303
L12362 7284
L12325 7265
L12306 7265
L12269 7284
L12250 7303
L12231 7340
L12231 7415
L12212 7453
L12194 7471
L12156 7490
L12081 7490
L12044 7471
L12025 7453
L12006 7415
L12006 7340
L12025 7303
L12044 7284
L12081 7265
L12156 7265
L12194 7284
L12212 7303
L12231 7340
" />
<path d="M5506 7640
L5506 7865
" />
<path d="M5506 7753
L5900 7753
L5844 7790
L5806 7828
L5787 7865
" />
<path d="M5731 7415
L5750 7453
L5769 7471
L5806 7490
L5825 7490
L5862 7471
L5881 7453
L5900 7415
L5900 7340
L5881 7303
L5862 7284
L5825 7265
L5806 7265
L5769 7284
L5750 7303
L5731 7340
L5731 7415
L5712 7453
L5694 7471
L5656 7490
L5581 7490
L5544 7471
L5525 7453
L5506 7415
L5506 7340
L5525 7303
L5544 7284
L5581 7265
L5656 7265
L5694 7284
L5712 7303
L5731 7340
" />
<path d="M22956 4791
L23181 4791
" />
<path d="M23069 4791
L23069 4397
L23106 4453
L23144 4491
L23181 4509
" />
<path d="M22712 4397
L22675 4397
L22637 4416
L22619 4434
L22600 4472
L22581 4547
L22581 4641
L22600 4716
L22619 4753
L22637 4772
L22675 4791
L22712 4791
L22750 4772
L22769 4753
L22787 4716
L22806 4641
L22806 4547
L22787 4472
L22769 4434
L22750 4416
L22712 4397
" />
<path d="M22412 4791
L22412 4397
" />
<path d="M22187 4791
L22356 4566
" />
<path d="M22187 4397
L22412 4622
" />
<path d="M22956 6791
L23181 6791
" />
<path d="M23069 6791
L23069 6397
L23106 6453
L23144 6491
L23181 6509
" />
<path d="M22712 6397
L22675 6397
L22637 6416
L22619 6434
L22600 6472
L22581 6547
L22581 6641
L22600 6716
L22619 6753
L22637 6772
L22675 6791
L22712 6791
L22750 6772
L22769 6753
L22787 6716
L22806 6641
L22806 6547
L22787 6472
L22769 6434
L22750 6416
L22712 6397
" />
<path d="M22412 6791
L22412 6397
" />
<path d="M22187 6791
L22356 6566
" />
<path d="M22187 6397
L22412 6622
" />
<path d="M16456 4791
L16681 4791
" />
<path d="M16569 4791
L16569 4397
L16606 4453
L16644 4491
L16681 4509
" />
<path d="M16212 4397
L16175 4397
L16137 4416
L16119 4434
L16100 4472
L16081 4547
L16081 4641
L16100 4716
L16119 4753
L16137 4772
L16175 4791
L16212 4791
L16250 4772
L16269 4753
L16287 4716
L16306 4641
L16306 4547
L16287 4472
L16269 4434
L16250 4416
L16212 4397
" />
<path d="M15912 4791
L15912 4397
" />
<path d="M15687 4791
L15856 4566
" />
<path d="M15687 4397
L15912 4622
" />
<path d="M16456 6791
L16681 6791
" />
<path d="M16569 6791
L16569 6397
L16606 6453
L16644 6491
L16681 6509
" />
<path d="M16212 6397
L16175 6397
L16137 6416
L16119 6434
L16100 6472
L16081 6547
L16081 6641
L16100 6716
L16119 6753
L16137 6772
L16175 6791
L16212 6791
L16250 6772
L16269 6753
L16287 6716
L16306 6641
L16306 6547
L16287 6472
L16269 6434
L16250 6416
L16212 6397
" />
<path d="M15912 6791
L15912 6397
" />
<path d="M15687 6791
L15856 6566
" />
<path d="M15687 6397
L15912 6622
" />
<path d="M9706 4791
L9931 4791
" />
<path d="M9819 4791
L9819 4397
L9856 4453
L9894 4491
L9931 4509
" />
<path d="M9462 4397
L9425 4397
L9387 4416
L9369 4434
L9350 4472
L9331 4547
L9331 4641
L9350 4716
L9369 4753
L9387 4772
L9425 4791
L9462 4791
L9500 4772
L9519 4753
L9537 4716
L9556 4641
L9556 4547
L9537 4472
L9519 4434
L9500 4416
L9462 4397
" />
<path d="M9162 4791
L9162 4397
" />
<path d="M8937 4791
L9106 4566
" />
<path d="M8937 4397
L9162 4622
" />
<path d="M9706 6791
L9931 6791
" />
<path d="M9819 6791
L9819 6397
L9856 6453
L9894 6491
L9931 6509
" />
<path d="M9462 6397
L9425 6397
L9387 6416
L9369 6434
L9350 6472
L9331 6547
L9331 6641
L9350 6716
L9369 6753
L9387 6772
L9425 6791
L9462 6791
L9500 6772
L9519 6753
L9537 6716
L9556 6641
L9556 6547
L9537 6472
L9519 6434
L9500 6416
L9462 6397
" />
<path d="M9162 6791
L9162 6397
" />
<path d="M8937 6791
L9106 6566
" />
<path d="M8937 6397
L9162 6622
" />
<path d="M3206 6791
L3431 6791
" />
<path d="M3319 6791
L3319 6397
L3356 6453
L3394 6491
L3431 6509
" />
<path d="M2962 6397
L2925 6397
L2887 6416
L2869 6434
L2850 6472
L2831 6547
L2831 6641
L2850 6716
L2869 6753
L2887 6772
L2925 6791
L2962 6791
L3000 6772
L3019 6753
L3037 6716
L3056 6641
L3056 6547
L3037 6472
L3019 6434
L3000 6416
L2962 6397
" />
<path d="M2662 6791
L2662 6397
" />
<path d="M2437 6791
L2606 6566
" />
<path d="M2437 6397
L2662 6622
" />
</g>
<g style="fill:#000000; fill-opacity:0.0; 
stroke:#000000; stroke-width:59.0551; stroke-opacity:1; 
stroke-linecap:round; stroke-linejoin:round;">
</g>
<g style="fill:#FF00FF; fill-opacity:0.0; 
stroke:#FF00FF; stroke-width:59.0551; stroke-opacity:1; 
stroke-linecap:round; stroke-linejoin:round;">
<path d="M178 29
L26950 29
" />
<path d="M26950 13823
L26952 29
" />
<path d="M178 13823
L26950 13823
" />
<path d="M181 29
L178 13823
" />
</g> 
</svg>
